# xmcd
#
# Track frame offsets: 
#        150
#        13601
#        31337
#        43608
#        58709
#        92783
#        105528
#        121730
#        134495
#        147174
#        156044
#        179281
#        194586
#        206241
#        217577
#        230950
#        245302
#        256557
#        280874
#        294696
#        308297
#        322925
#        334391
#        345393
#        346373
#
# Disc length: 4669 seconds
#
# Revision: 0
# Processed by: cddbd v1.5.2PL0 Copyright (c) Steve Scherf et al.
# Submitted via: ExactAudioCopy v1.1
#
DISCID=6b123b19
DTITLE=Canned Heat - Uncanned! - Best - Disc 2
DYEAR=1994
DGENRE=Blues
TTITLE0=Evil Woman (stereo)
TTITLE1=Amphetamine Annie (stereo)
TTITLE2=An Owl Song (stereo)
TTITLE3=Terraplane Blues (stereo)
TTITLE4=Christmas Blues (alt) (stereo)
TTITLE5=Going Up The Country (stereo)
TTITLE6=Time Was (stereo)
TTITLE7=Low Down (And High Up) (stereo)
TTITLE8=Same All Over (stereo)
TTITLE9=Big Fat (The Fat Man) (stereo)
TTITLE10=It's All Right (stereo)
TTITLE11=Poor Moon (stereo)
TTITLE12=Sugar Bee (stereo)
TTITLE13=Shake It And Break It (stereo)
TTITLE14=Future Blues (stereo)
TTITLE15=Let's Work Together (stereo)
TTITLE16=Wooly Bully (stereo)
TTITLE17=Human Condition (stereo)
TTITLE18=Long Way From L.A. (stereo)
TTITLE19=Hill's Stomp (stereo)
TTITLE20=Rockin' With The King (stereo)
TTITLE21=Harley Davidson Blues (stereo)
TTITLE22=Rock and Roll Music (stereo)
TTITLE23=Music City (radio spot) (stereo)
TTITLE24=Future Blues (radio spot) (stereo)
EXTD=
EXTT0=
EXTT1=
EXTT2=
EXTT3=
EXTT4=
EXTT5=
EXTT6=
EXTT7=
EXTT8=
EXTT9=
EXTT10=
EXTT11=
EXTT12=
EXTT13=
EXTT14=
EXTT15=
EXTT16=
EXTT17=
EXTT18=
EXTT19=
EXTT20=
EXTT21=
EXTT22=
EXTT23=
EXTT24=
PLAYORDER=
